<?xml version="1.0" encoding="utf-8"?>
<!-- Generator: Adobe Illustrator 22.1.0, SVG Export Plug-In . SVG Version: 6.00 Build 0)  -->
<svg version="1.1" id="Livello_1" xmlns="http://www.w3.org/2000/svg" xmlns:xlink="http://www.w3.org/1999/xlink" x="0px" y="0px"
	 viewBox="0 0 584.9 160.6" style="enable-background:new 0 0 584.9 160.6;" xml:space="preserve">
<style type="text/css">
	.st0{fill:#FFFFFF;}
</style>
<g>
	<path class="st0" d="M99.4,157.4v-9.6h2.7c0.7,0,1.4,0.1,1.9,0.4c0.6,0.2,1.1,0.6,1.5,1c0.4,0.4,0.7,0.9,1,1.5
		c0.2,0.6,0.4,1.2,0.4,1.9v0.1c0,0.7-0.1,1.3-0.4,1.9c-0.2,0.6-0.6,1.1-1,1.5c-0.4,0.4-0.9,0.7-1.5,1c-0.6,0.2-1.2,0.3-1.9,0.3H99.4
		z M95.9,160.6h6.1c1.2,0,2.4-0.2,3.4-0.6c1-0.4,1.9-1,2.7-1.7c0.7-0.7,1.3-1.5,1.7-2.5c0.4-1,0.6-2,0.6-3.1v0
		c0-1.1-0.2-2.2-0.6-3.1c-0.4-1-1-1.8-1.7-2.5c-0.7-0.7-1.6-1.3-2.7-1.7c-1-0.4-2.2-0.6-3.4-0.6h-6.1V160.6z M118.7,153.9l2.1-5.1
		l2.1,5.1H118.7z M112.5,160.6h3.5l1.4-3.6h6.7l1.4,3.6h3.6l-6.8-16h-3.2L112.5,160.6z M132,160.6h11.3v-3.1h-7.9v-12.7H132V160.6z
		 M154.9,160.6h3.4v-16H156l-4.5,1.4l0.7,2.9l2.7-0.7V160.6z M165.8,151.6c-0.5-0.4-0.7-1-0.7-1.7v0c0-0.7,0.2-1.3,0.7-1.7
		c0.5-0.4,1.1-0.7,2-0.7c0.9,0,1.6,0.2,2.1,0.7c0.5,0.4,0.7,1,0.7,1.7v0c0,0.7-0.2,1.2-0.7,1.7c-0.5,0.4-1.1,0.7-2,0.7
		C167,152.2,166.3,152,165.8,151.6 M170.2,160.2c0.9-0.4,1.6-1,2.2-1.8c0.6-0.7,1-1.7,1.3-2.7c0.3-1.1,0.4-2.2,0.4-3.5v0
		c0-0.8,0-1.5-0.1-2.1c-0.1-0.6-0.2-1.2-0.4-1.6c-0.2-0.5-0.4-0.9-0.6-1.3c-0.2-0.4-0.5-0.7-0.8-1c-0.3-0.3-0.6-0.6-0.9-0.8
		c-0.3-0.2-0.7-0.4-1-0.5c-0.4-0.1-0.8-0.2-1.2-0.3c-0.4-0.1-0.9-0.1-1.4-0.1c-0.9,0-1.7,0.1-2.4,0.4c-0.7,0.3-1.4,0.7-1.9,1.2
		c-0.5,0.5-0.9,1.1-1.2,1.7c-0.3,0.7-0.4,1.4-0.4,2.2v0c0,0.8,0.1,1.5,0.4,2.2c0.3,0.6,0.6,1.2,1.1,1.6c0.5,0.4,1.1,0.8,1.8,1
		c0.7,0.2,1.5,0.3,2.3,0.3c0.7,0,1.3-0.1,1.8-0.3c0.5-0.2,1-0.5,1.4-0.8c-0.1,1.1-0.4,2-1,2.6c-0.5,0.7-1.3,1-2.2,1
		c-0.7,0-1.3-0.1-1.8-0.3c-0.5-0.2-1.1-0.6-1.6-1L162,159c0.7,0.6,1.4,1,2.2,1.3c0.8,0.3,1.8,0.5,3,0.5
		C168.4,160.8,169.4,160.6,170.2,160.2 M184.7,160.4c0.8-0.3,1.4-0.6,1.9-1.1c0.5-0.5,0.9-1,1.2-1.7c0.3-0.7,0.4-1.4,0.4-2.3v0
		c0-0.9-0.1-1.7-0.4-2.3c-0.3-0.6-0.7-1.2-1.2-1.6c-0.5-0.4-1.1-0.7-1.8-0.9c-0.7-0.2-1.4-0.3-2.2-0.3c-0.4,0-0.8,0-1.1,0.1
		c-0.3,0.1-0.6,0.1-0.9,0.2l0.2-2.8h6.7v-3.1h-9.7l-0.5,7.8l2,1.3c0.4-0.2,0.8-0.3,1.2-0.4c0.4-0.1,0.9-0.2,1.4-0.2
		c0.8,0,1.5,0.2,2,0.6c0.5,0.4,0.8,0.9,0.8,1.6v0c0,0.7-0.2,1.3-0.7,1.6c-0.5,0.4-1.1,0.6-1.9,0.6c-0.7,0-1.4-0.1-2-0.5
		c-0.6-0.3-1.2-0.7-1.8-1.3l-2.1,2.5c0.8,0.7,1.6,1.3,2.6,1.7c0.9,0.4,2.1,0.6,3.3,0.6C183.1,160.8,183.9,160.7,184.7,160.4
		 M195,151.6c-0.5-0.4-0.7-1-0.7-1.7v0c0-0.7,0.2-1.3,0.7-1.7c0.5-0.4,1.1-0.7,2-0.7c0.9,0,1.6,0.2,2,0.7c0.5,0.4,0.7,1,0.7,1.7v0
		c0,0.7-0.2,1.2-0.7,1.7c-0.5,0.4-1.1,0.7-2,0.7C196.1,152.2,195.5,152,195,151.6 M199.3,160.2c0.9-0.4,1.6-1,2.2-1.8
		c0.6-0.7,1-1.7,1.3-2.7c0.3-1.1,0.5-2.2,0.5-3.5v0c0-0.8,0-1.5-0.1-2.1c-0.1-0.6-0.2-1.2-0.4-1.6c-0.2-0.5-0.4-0.9-0.6-1.3
		c-0.2-0.4-0.5-0.7-0.8-1c-0.3-0.3-0.6-0.6-0.9-0.8c-0.3-0.2-0.7-0.4-1-0.5c-0.4-0.1-0.8-0.2-1.2-0.3c-0.4-0.1-0.9-0.1-1.4-0.1
		c-0.9,0-1.7,0.1-2.5,0.4c-0.7,0.3-1.4,0.7-1.9,1.2c-0.5,0.5-0.9,1.1-1.2,1.7c-0.3,0.7-0.4,1.4-0.4,2.2v0c0,0.8,0.1,1.5,0.4,2.2
		c0.3,0.6,0.6,1.2,1.1,1.6c0.5,0.4,1.1,0.8,1.8,1c0.7,0.2,1.5,0.3,2.3,0.3c0.7,0,1.3-0.1,1.8-0.3c0.5-0.2,1-0.5,1.4-0.8
		c-0.1,1.1-0.4,2-1,2.6c-0.5,0.7-1.3,1-2.2,1c-0.7,0-1.3-0.1-1.8-0.3c-0.5-0.2-1.1-0.6-1.6-1l-1.8,2.6c0.7,0.6,1.4,1,2.2,1.3
		c0.8,0.3,1.8,0.5,2.9,0.5C197.5,160.8,198.5,160.6,199.3,160.2 M213.4,160.6h3.5v-15.8h-3.5V160.6z M221.1,160.6h11.3v-3.1h-7.9
		v-12.7h-3.5V160.6z M242.1,160.6h3.4v-10.1l7.6,10.1h3v-15.8h-3.4v9.8l-7.4-9.8h-3.2V160.6z M266,157.2c-0.6-0.3-1.1-0.6-1.5-1.1
		c-0.4-0.5-0.8-1-1-1.6c-0.2-0.6-0.3-1.2-0.3-1.9v0c0-0.7,0.1-1.3,0.3-1.9c0.2-0.6,0.5-1.1,1-1.6c0.4-0.5,0.9-0.8,1.5-1.1
		c0.6-0.3,1.2-0.4,1.9-0.4c0.7,0,1.3,0.1,1.9,0.4c0.6,0.3,1.1,0.6,1.5,1.1c0.4,0.5,0.8,1,1,1.6c0.2,0.6,0.4,1.2,0.4,1.9v0.1
		c0,0.7-0.1,1.3-0.4,1.9c-0.2,0.6-0.6,1.1-1,1.6c-0.4,0.5-0.9,0.8-1.5,1.1c-0.6,0.3-1.2,0.4-1.9,0.4
		C267.3,157.6,266.6,157.5,266,157.2 M271.3,160.2c1-0.4,1.9-1,2.7-1.8c0.7-0.7,1.3-1.6,1.8-2.6c0.4-1,0.6-2.1,0.6-3.2v0
		c0-1.1-0.2-2.2-0.6-3.2c-0.4-1-1-1.9-1.7-2.6c-0.7-0.7-1.6-1.3-2.7-1.7c-1-0.4-2.1-0.7-3.4-0.7c-1.2,0-2.3,0.2-3.4,0.7
		c-1,0.4-1.9,1-2.7,1.8c-0.7,0.7-1.3,1.6-1.8,2.6c-0.4,1-0.6,2-0.6,3.2v0.1c0,1.1,0.2,2.2,0.6,3.2c0.4,1,1,1.8,1.7,2.6
		c0.7,0.7,1.6,1.3,2.7,1.7c1,0.4,2.1,0.6,3.4,0.6C269.1,160.8,270.3,160.6,271.3,160.2 M279.7,160.6h3.4v-10.3l4.4,6.7h0.1l4.4-6.8
		v10.3h3.4v-15.8h-3.7l-4.1,6.7l-4.1-6.7h-3.7V160.6z M299.6,160.6h12v-3.1H303v-3.3h7.4V151H303v-3.2h8.5v-3.1h-11.9V160.6z
		 M325.2,157.4v-9.6h2.7c0.7,0,1.4,0.1,1.9,0.4c0.6,0.2,1.1,0.6,1.5,1c0.4,0.4,0.7,0.9,1,1.5c0.2,0.6,0.4,1.2,0.4,1.9v0.1
		c0,0.7-0.1,1.3-0.4,1.9c-0.2,0.6-0.6,1.1-1,1.5c-0.4,0.4-0.9,0.7-1.5,1c-0.6,0.2-1.2,0.3-1.9,0.3H325.2z M321.8,160.6h6.2
		c1.2,0,2.4-0.2,3.4-0.6c1-0.4,1.9-1,2.7-1.7c0.7-0.7,1.3-1.5,1.7-2.5c0.4-1,0.6-2,0.6-3.1v0c0-1.1-0.2-2.2-0.6-3.1
		c-0.4-1-1-1.8-1.7-2.5c-0.7-0.7-1.6-1.3-2.7-1.7c-1-0.4-2.2-0.6-3.4-0.6h-6.2V160.6z M339.7,160.6h12v-3.1h-8.6v-3.3h7.4V151h-7.4
		v-3.2h8.4v-3.1h-11.9V160.6z M355.1,160.6h11.3v-3.1h-7.9v-12.7h-3.5V160.6z M385.6,160.6c0.6-0.1,1.2-0.3,1.7-0.6
		c0.5-0.2,1-0.5,1.4-0.9c0.4-0.3,0.9-0.7,1.3-1.2l-2.2-2.2c-0.6,0.6-1.2,1-1.9,1.4c-0.6,0.3-1.4,0.5-2.3,0.5c-0.7,0-1.3-0.1-1.9-0.4
		c-0.6-0.3-1-0.6-1.4-1.1c-0.4-0.5-0.7-1-0.9-1.6c-0.2-0.6-0.3-1.2-0.3-1.9v0c0-0.7,0.1-1.3,0.3-1.9c0.2-0.6,0.5-1.1,0.9-1.6
		c0.4-0.5,0.9-0.8,1.5-1.1c0.6-0.3,1.2-0.4,1.8-0.4c0.8,0,1.5,0.2,2.2,0.5c0.6,0.3,1.3,0.7,1.9,1.3l2.2-2.6c-0.4-0.4-0.8-0.7-1.2-1
		c-0.4-0.3-0.9-0.6-1.4-0.8c-0.5-0.2-1.1-0.4-1.7-0.5c-0.6-0.1-1.3-0.2-2-0.2c-1.2,0-2.3,0.2-3.3,0.7c-1,0.4-1.9,1-2.6,1.8
		c-0.7,0.7-1.3,1.6-1.7,2.6c-0.4,1-0.6,2-0.6,3.2v0.1c0,1.1,0.2,2.2,0.6,3.2c0.4,1,1,1.9,1.7,2.6c0.7,0.7,1.6,1.3,2.6,1.7
		c1,0.4,2.1,0.6,3.2,0.6C384.3,160.8,385,160.8,385.6,160.6 M398.8,157.2c-0.6-0.3-1.1-0.6-1.5-1.1c-0.4-0.5-0.8-1-1-1.6
		c-0.2-0.6-0.4-1.2-0.4-1.9v0c0-0.7,0.1-1.3,0.4-1.9c0.2-0.6,0.6-1.1,1-1.6c0.4-0.5,0.9-0.8,1.5-1.1c0.6-0.3,1.2-0.4,1.9-0.4
		c0.7,0,1.3,0.1,1.9,0.4c0.6,0.3,1.1,0.6,1.5,1.1c0.4,0.5,0.8,1,1,1.6c0.2,0.6,0.4,1.2,0.4,1.9v0.1c0,0.7-0.1,1.3-0.4,1.9
		c-0.2,0.6-0.6,1.1-1,1.6c-0.4,0.5-0.9,0.8-1.5,1.1c-0.6,0.3-1.2,0.4-1.9,0.4C400.1,157.6,399.4,157.5,398.8,157.2 M404.1,160.2
		c1-0.4,1.9-1,2.7-1.8c0.7-0.7,1.3-1.6,1.7-2.6c0.4-1,0.6-2.1,0.6-3.2v0c0-1.1-0.2-2.2-0.6-3.2c-0.4-1-1-1.9-1.7-2.6
		c-0.7-0.7-1.6-1.3-2.6-1.7c-1-0.4-2.1-0.7-3.4-0.7c-1.2,0-2.3,0.2-3.4,0.7c-1,0.4-1.9,1-2.7,1.8c-0.7,0.7-1.3,1.6-1.8,2.6
		s-0.6,2-0.6,3.2v0.1c0,1.1,0.2,2.2,0.6,3.2c0.4,1,1,1.8,1.7,2.6c0.7,0.7,1.6,1.3,2.6,1.7c1,0.4,2.1,0.6,3.4,0.6
		C402,160.8,403.1,160.6,404.1,160.2 M412.5,160.6h3.4v-10.3l4.4,6.7h0.1l4.4-6.8v10.3h3.4v-15.8h-3.7l-4.1,6.7l-4.2-6.7h-3.7V160.6
		z M432.4,160.6h3.5v-6.1h7.5v-3.1h-7.5v-3.4h8.5v-3.1h-12V160.6z M453.3,157.2c-0.6-0.3-1.1-0.6-1.5-1.1c-0.4-0.5-0.8-1-1-1.6
		c-0.2-0.6-0.3-1.2-0.3-1.9v0c0-0.7,0.1-1.3,0.3-1.9c0.2-0.6,0.6-1.1,1-1.6c0.4-0.5,0.9-0.8,1.5-1.1c0.6-0.3,1.2-0.4,1.9-0.4
		c0.7,0,1.3,0.1,1.9,0.4c0.6,0.3,1.1,0.6,1.5,1.1c0.4,0.5,0.7,1,1,1.6c0.2,0.6,0.3,1.2,0.3,1.9v0.1c0,0.7-0.1,1.3-0.3,1.9
		c-0.2,0.6-0.6,1.1-1,1.6c-0.4,0.5-0.9,0.8-1.5,1.1c-0.6,0.3-1.2,0.4-1.9,0.4C454.5,157.6,453.9,157.5,453.3,157.2 M458.6,160.2
		c1-0.4,1.9-1,2.7-1.8c0.7-0.7,1.3-1.6,1.7-2.6c0.4-1,0.6-2.1,0.6-3.2v0c0-1.1-0.2-2.2-0.6-3.2c-0.4-1-1-1.9-1.7-2.6
		c-0.7-0.7-1.6-1.3-2.7-1.7c-1-0.4-2.1-0.7-3.4-0.7c-1.2,0-2.3,0.2-3.4,0.7c-1,0.4-1.9,1-2.7,1.8c-0.7,0.7-1.3,1.6-1.7,2.6
		c-0.4,1-0.6,2-0.6,3.2v0.1c0,1.1,0.2,2.2,0.6,3.2c0.4,1,1,1.8,1.7,2.6c0.7,0.7,1.6,1.3,2.6,1.7c1,0.4,2.1,0.6,3.4,0.6
		C456.4,160.8,457.5,160.6,458.6,160.2 M470.5,152.4v-4.6h3.5c0.9,0,1.5,0.2,2,0.6c0.5,0.4,0.7,0.9,0.7,1.7v0c0,0.7-0.2,1.2-0.7,1.6
		c-0.5,0.4-1.1,0.6-2,0.6H470.5z M467,160.6h3.5v-5.1h2.7h0l3.4,5.1h4.1l-3.9-5.7c1-0.4,1.8-1,2.5-1.8c0.6-0.8,0.9-1.9,0.9-3.1v-0.1
		c0-1.5-0.4-2.7-1.4-3.6c-1.1-1.1-2.6-1.6-4.6-1.6H467V160.6z M487.3,160.6h3.5v-12.6h4.8v-3.2h-13.1v3.2h4.8V160.6z"/>
	<path class="st0" d="M432.1,23.5c-1.5,1.4-3.4,2.2-6,2.2c-2,0-3.7-0.6-5.1-1.7v1.4h-2.8V5.9h2.8v6.2c1.4-1.1,3.1-1.6,5.2-1.6
		c2.5,0,4.5,0.7,6,2.2c1.3,1.4,2,3.2,2,5.4C434.1,20.4,433.5,22.1,432.1,23.5 M430.1,14.5c-0.9-1-2.1-1.5-3.8-1.5
		c-3.5,0-5.3,1.7-5.3,5.2c0,1.5,0.5,2.7,1.5,3.6c1,0.9,2.2,1.4,3.9,1.4c1.6,0,2.9-0.5,3.8-1.4c0.8-0.9,1.3-2.1,1.3-3.6
		C431.3,16.6,430.9,15.3,430.1,14.5"/>
	<path class="st0" d="M439.5,27.3c0.6,0.5,1.7,0.7,3.2,0.7c3,0,4.6-1,4.8-3.1c-1.2,0.8-2.8,1.3-4.6,1.3c-2,0-3.5-0.5-4.8-1.4
		c-1.3-1-2-2.4-2-4.2v-9.3h2.8v9.2c0,2.1,1.3,3.1,3.9,3.1c3.1,0,4.6-1.5,4.6-4.5v-7.8h2.8v13.1c0,2-0.7,3.5-2,4.5
		c-1.3,1-3.2,1.5-5.7,1.5c-1.2,0-2.2-0.1-3.1-0.4L439.5,27.3z"/>
	<path class="st0" d="M544.4,25.8c-0.4,0-0.7-0.3-0.7-0.7v-1.4c0-0.3,0.1-0.5,0.6-1.1L555,8.4h-10.1c-0.4,0-0.7-0.3-0.7-0.7V6.4
		c0-0.4,0.3-0.7,0.7-0.7h13.5c0.4,0,0.7,0.3,0.7,0.7v1.1c0,0.3-0.1,0.5-0.6,1.1l-10.9,14.5h10.8c0.4,0,0.7,0.3,0.7,0.7v1.3
		c0,0.4-0.3,0.7-0.7,0.7H544.4z"/>
	<path class="st0" d="M562.9,25.8c-0.4,0-0.7-0.3-0.7-0.7v-1.4c0-0.3,0.1-0.5,0.6-1.1l10.7-14.2h-10.1c-0.4,0-0.7-0.3-0.7-0.7V6.4
		c0-0.4,0.3-0.7,0.7-0.7h13.5c0.4,0,0.7,0.3,0.7,0.7v1.1c0,0.3-0.1,0.5-0.6,1.1l-10.9,14.5h10.8c0.4,0,0.7,0.3,0.7,0.7v1.3
		c0,0.4-0.3,0.7-0.7,0.7H562.9z"/>
	<path class="st0" d="M581.6,6.4c0-0.4,0.3-0.7,0.7-0.7h1.9c0.4,0,0.7,0.3,0.7,0.7v18.7c0,0.4-0.3,0.7-0.7,0.7h-1.9
		c-0.4,0-0.7-0.3-0.7-0.7V6.4z"/>
	<path class="st0" d="M524.5,6.4c0-0.3,0.3-0.7,0.7-0.7h1.9c0.4,0,0.7,0.3,0.7,0.7v12.7c0,2.5,1.9,4.4,4.5,4.4
		c2.5,0,4.5-1.9,4.5-4.4V6.4c0-0.4,0.3-0.7,0.7-0.7h1.9c0.4,0,0.7,0.3,0.7,0.7v12.7c0,4.2-3.5,7.5-7.8,7.5c-4.2,0-7.7-3.3-7.7-7.5
		V6.4z"/>
	<path class="st0" d="M494.5,5c4.3,0,7.8,3.3,7.8,7.4v12.7c0,0.4-0.3,0.7-0.7,0.7h-1.9c-0.4,0-0.7-0.3-0.7-0.7v-6.6h-9v6.6
		c0,0.4-0.3,0.7-0.7,0.7h-1.9c-0.4,0-0.7-0.3-0.7-0.7V12.4C486.8,8.3,490.3,5,494.5,5 M499.1,12.4c0-2.5-2.1-4.4-4.6-4.4
		c-2.4,0-4.4,1.9-4.4,4.4v3.4h9V12.4z"/>
	<path class="st0" d="M520.1,5.7c0.4,0,0.6,0.2,0.6,0.5v1.5c0,0.4-0.3,0.7-0.6,0.7h-5.6v16.8c0,0.4-0.3,0.7-0.6,0.7h-1.9
		c-0.4,0-0.7-0.3-0.7-0.7V8.4h-5.6c-0.3,0-0.6-0.3-0.6-0.7V6.4c0-0.4,0.3-0.7,0.6-0.7H520.1z"/>
	<path class="st0" d="M465.7,5.7c-0.4,0-0.7,0.3-0.7,0.7v18.8c0,0.4,0.3,0.7,0.7,0.7h1.9c0.4,0,0.7-0.3,0.7-0.7V10.9L478.5,25
		c0.6,0.8,1,0.8,1.5,0.8h1.8c0.4,0,0.7-0.3,0.7-0.7V6.4c0-0.4-0.3-0.7-0.7-0.7h-1.9c-0.4,0-0.7,0.3-0.7,0.7v14.4L468.7,6.5
		c-0.6-0.8-1-0.8-1.5-0.8H465.7z"/>
	<path class="st0" d="M370.1,82c1.7,0,3.4-0.3,5-0.8c1.6-0.5,3-1.5,4.3-2.8c1.3-1.3,2.3-3,3-5c0.7-2.1,1.1-4.6,1.1-7.6
		c0-2.7-0.3-5.2-0.8-7.4c-0.5-2.2-1.4-4.1-2.6-5.6c-1.2-1.6-2.8-2.8-4.8-3.6c-2-0.8-4.4-1.2-7.3-1.2h-8.4v34H370.1z M370.9,38
		c3.5,0,6.7,0.6,9.7,1.7c3,1.1,5.6,2.8,7.7,5c2.2,2.2,3.9,5,5.1,8.3c1.2,3.3,1.8,7.2,1.8,11.7c0,3.9-0.5,7.6-1.5,10.9
		c-1,3.3-2.5,6.2-4.5,8.6c-2,2.4-4.6,4.3-7.6,5.7c-3,1.4-6.6,2.1-10.7,2.1h-23.2V38H370.9z M414.6,92h-11.8V38h11.8V92z M435.8,92
		L418.5,38h12.1l12,37.9h0.1L454.8,38H467L449.1,92H435.8z M494.8,71.1L488,51.3h-0.1l-7,19.8H494.8z M494.1,38L514.2,92h-12.2
		l-4.1-12h-20.1l-4.2,12h-11.9L482,38H494.1z M529.8,38l22.4,36.2h0.1V38h11.1V92h-11.8l-22.3-36.1h-0.2V92h-11V38H529.8z M584.9,92
		h-11.8V38h11.8V92z"/>
	<path class="st0" d="M25.9,82c1.7,0,3.4-0.3,5-0.8c1.6-0.5,3-1.5,4.3-2.8c1.3-1.3,2.3-3,3-5c0.8-2.1,1.1-4.6,1.1-7.6
		c0-2.7-0.3-5.2-0.8-7.4c-0.5-2.2-1.4-4.1-2.6-5.6c-1.2-1.6-2.8-2.8-4.8-3.6c-2-0.8-4.4-1.2-7.3-1.2h-8.4v34H25.9z M26.8,38
		c3.5,0,6.7,0.6,9.7,1.7c3,1.1,5.6,2.8,7.7,5c2.2,2.2,3.9,5,5.1,8.3c1.2,3.3,1.8,7.2,1.8,11.7c0,3.9-0.5,7.6-1.5,10.9
		c-1,3.3-2.5,6.2-4.6,8.6c-2,2.4-4.6,4.3-7.6,5.7c-3,1.4-6.6,2.1-10.7,2.1H3.6V38H26.8z M91.7,92L74.3,38h12.1l12,37.9h0.1L110.6,38
		h12.2L105,92H91.7z M150.6,71.1l-6.8-19.8h-0.2l-7,19.8H150.6z M149.9,38L170,92h-12.2l-4.1-12h-20.1l-4.2,12h-11.9L137.8,38H149.9
		z M185.7,38l22.4,36.2h0.1V38h11.1V92h-11.8l-22.3-36.1H185V92h-11V38H185.7z M240.7,92h-11.8V38h11.8V92z"/>
	<path class="st0" d="M332.4,27.6c2.7,1,0,3.3-0.8,4.1c-1.1,1.2-5.7,3.8-13.7,7.1c-13.9,5.8-39.4,16.6-39.4,36.5
		c0,12.2,8.7,16.7,15.2,16.7c5.5,0,9-3.2,8.1-8h-3.1c0.3,2.4-1,3.1-2.4,3.1c-4.8,0-11.7-5.3-11.7-15.1c0-8.8,8.6-19.1,17.6-19.1
		c14.3,0,19.4,15.8,19.4,25.3c0,17.8-16.6,26.7-27.8,26.7c-15.1,0-32.3-13.3-32.3-32.7c0-7.3,1.7-12.2,5.4-17.5
		c4.1-6,10-9.9,15.7-10.7l0.1-2.9c-2.4-2.4-5.2-4.2-5.2-8.3c0-5.4,6.1-8,9.5-8c2.9,0,4.8,1.3,6.2,3.2c2.8,3.9,3.1,6.4,3.1,17.6h2.9
		V20.8h-2.9v3.7c-2.8-1.7-5.9-3.2-9-3.2c-7,0-17.3,5.9-17.3,13.7c0,4.6,2.9,8.4,3.5,8.6c-7.6,4-18.8,14.6-18.8,31.3
		c0,20.1,17.4,34.4,35.8,34.4c15.4,0,37.8-12.7,37.8-36c0-13.7-8.5-20.9-18.5-24.3c3.8-1.5,16-4.8,22.4-10.1
		c6.8-5.6,7.7-11.3,5.2-13c-1.7-1.1-3-1.4-4.9-1V27.6z"/>
	<rect x="58.6" y="38" class="st0" width="11.8" height="53.9"/>
</g>
</svg>
