<?xml version="1.0" encoding="utf-8"?>
<!-- Generator: Adobe Illustrator 22.1.0, SVG Export Plug-In . SVG Version: 6.00 Build 0)  -->
<svg version="1.1" id="Livello_1" xmlns="http://www.w3.org/2000/svg" xmlns:xlink="http://www.w3.org/1999/xlink" x="0px" y="0px"
	 viewBox="0 0 226.8 74.2" style="enable-background:new 0 0 226.8 74.2;" xml:space="preserve">
<style type="text/css">
	.st0{fill:#FFFFFF;}
</style>
<g>
	<g>
		<path class="st0" d="M65.1,52.2h-2.3c-0.3,0-0.5,0.2-0.5,0.5v21.1c0,0.2,0.2,0.5,0.5,0.5H65c0.3,0,0.5-0.2,0.5-0.5V52.7
			C65.5,52.4,65.3,52.2,65.1,52.2"/>
		<path class="st0" d="M138.4,52.2h-2.3c-0.3,0-0.5,0.2-0.5,0.5v21.1c0,0.2,0.2,0.5,0.5,0.5h2.3c0.3,0,0.5-0.2,0.5-0.5V52.7
			C138.9,52.4,138.7,52.2,138.4,52.2"/>
		<path class="st0" d="M88.9,52.2H69c-0.2,0-0.5,0.2-0.5,0.5v1.8c0,0.3,0.2,0.5,0.5,0.5h8.3v18.9c0,0.2,0.2,0.5,0.5,0.5h2.3
			c0.3,0,0.5-0.2,0.5-0.5V54.9h8.3c0.2,0,0.5-0.2,0.5-0.5v-1.8C89.3,52.4,89.1,52.2,88.9,52.2"/>
		<path class="st0" d="M94.3,66.5l4.3-10.8l4.3,10.8H94.3L94.3,66.5z M108.7,73.8l-8.3-21.2c-0.1-0.3-0.4-0.5-0.8-0.5h-2
			c-0.3,0-0.6,0.1-0.7,0.5l-8.3,21.2c-0.1,0.3,0.1,0.5,0.4,0.5h1.9c0.4,0,0.6-0.2,0.7-0.5l1.8-4.5h10.7l1.8,4.5
			c0.2,0.4,0.3,0.5,0.7,0.5h1.9C108.5,74.2,108.8,74.1,108.7,73.8"/>
		<path class="st0" d="M150.1,66.5l4.3-10.8l4.3,10.8H150.1L150.1,66.5z M164.5,73.8l-8.3-21.2c-0.1-0.3-0.4-0.5-0.8-0.5h-2
			c-0.3,0-0.6,0.1-0.7,0.5l-8.3,21.2c-0.1,0.3,0.1,0.5,0.4,0.5h1.9c0.4,0,0.6-0.2,0.7-0.5l1.8-4.5h10.7l1.8,4.5
			c0.2,0.4,0.3,0.5,0.7,0.5h1.9C164.4,74.2,164.6,74.1,164.5,73.8"/>
		<path class="st0" d="M129.6,71.5h-12.2V52.7c0-0.3-0.2-0.5-0.5-0.5h-2.3c-0.2,0-0.5,0.2-0.5,0.5v21.1c0,0.2,0.2,0.5,0.5,0.5h15.1
			c0.3,0,0.5-0.2,0.5-0.5V72C130.1,71.7,129.8,71.5,129.6,71.5"/>
	</g>
	<g>
		<path class="st0" d="M150.2,37.9c-0.8,0-1.3-0.6-1.3-1.3v-2.5c0-0.5,0.2-0.8,1.1-2.1l20.2-25.8H151c-0.7,0-1.2-0.6-1.2-1.2V2.6
			c0-0.7,0.6-1.3,1.2-1.3h25.5c0.8,0,1.3,0.6,1.3,1.3v2c0,0.5-0.2,0.8-1.1,2.1L156.1,33h20.4c0.7,0,1.3,0.6,1.3,1.3v2.3
			c0,0.7-0.6,1.2-1.3,1.2H150.2L150.2,37.9z"/>
		<path class="st0" d="M185.3,37.9c-0.8,0-1.3-0.6-1.3-1.3v-2.5c0-0.5,0.2-0.8,1.1-2.1l20.2-25.8h-19.2c-0.7,0-1.2-0.6-1.2-1.2V2.6
			c0-0.7,0.6-1.3,1.2-1.3h25.5c0.8,0,1.3,0.6,1.3,1.3v2c0,0.5-0.2,0.8-1.1,2.1L191.2,33h20.4c0.7,0,1.3,0.6,1.3,1.3v2.3
			c0,0.7-0.6,1.2-1.3,1.2H185.3L185.3,37.9z"/>
		<path class="st0" d="M220.6,2.6c0-0.7,0.5-1.3,1.2-1.3h3.6c0.7,0,1.3,0.6,1.3,1.3v34c0,0.7-0.6,1.3-1.3,1.3h-3.6
			c-0.7,0-1.2-0.6-1.2-1.3V2.6L220.6,2.6z"/>
		<path class="st0" d="M112.5,2.5c0-0.6,0.5-1.2,1.2-1.2h3.7c0.7,0,1.2,0.6,1.2,1.2v23.1c0,4.5,3.7,8,8.5,8c4.8,0,8.5-3.5,8.5-8V2.5
			c0-0.7,0.6-1.2,1.2-1.2h3.7c0.7,0,1.2,0.6,1.2,1.2v23.1c0,7.6-6.7,13.5-14.7,13.5c-8,0-14.6-5.9-14.6-13.5V2.5L112.5,2.5z"/>
		<path class="st0" d="M55.8,0c8.2,0,14.8,6,14.8,13.5v23.1c0,0.7-0.6,1.2-1.2,1.2h-3.7c-0.7,0-1.2-0.6-1.2-1.2v-12h-17v12
			c0,0.7-0.6,1.2-1.3,1.2h-3.6c-0.7,0-1.2-0.6-1.2-1.2V13.5C41.2,6,47.9,0,55.8,0 M64.4,13.5c0-4.5-3.9-8-8.6-8
			c-4.5,0-8.4,3.5-8.4,8v6.3h17V13.5L64.4,13.5z"/>
		<path class="st0" d="M104.2,1.3c0.7,0,1.2,0.4,1.2,0.8v2.8c0,0.7-0.5,1.2-1.2,1.2H93.5v30.5c0,0.7-0.6,1.2-1.2,1.2h-3.7
			c-0.7,0-1.2-0.6-1.2-1.2V6.2H76.8c-0.7,0-1.2-0.6-1.2-1.2V2.5c0-0.7,0.6-1.2,1.2-1.2H104.2L104.2,1.3z"/>
		<path class="st0" d="M1.2,1.3C0.6,1.3,0,1.9,0,2.5v34.1c0,0.7,0.6,1.2,1.2,1.2h3.6c0.7,0,1.3-0.6,1.3-1.2V10.8l19.4,25.7
			c1.1,1.4,2,1.5,2.8,1.5h3.4c0.7,0,1.2-0.6,1.2-1.2V2.5c0-0.7-0.6-1.2-1.2-1.2h-3.7c-0.7,0-1.2,0.6-1.2,1.2v26.2L6.9,2.7
			c-1.1-1.4-2-1.4-2.8-1.4H1.2L1.2,1.3z"/>
	</g>
</g>
</svg>
