<?xml version="1.0" encoding="utf-8"?>
<!-- Generator: Adobe Illustrator 22.1.0, SVG Export Plug-In . SVG Version: 6.00 Build 0)  -->
<svg version="1.1" id="Livello_1" xmlns="http://www.w3.org/2000/svg" xmlns:xlink="http://www.w3.org/1999/xlink" x="0px" y="0px"
	 viewBox="0 0 56 55" style="enable-background:new 0 0 56 55;" xml:space="preserve">
<style type="text/css">
	.st0{fill:#321E0A;}
</style>
<path class="st0" d="M55.6,54.9H43.1c-5.2,0-7.5-2.6-11.3-8.5L9.5,13.1v25.3c0,6.3-0.1,13.1,5.6,15.1c0.3,0.3,0.3,1.1,0,1.4H0.7
	c-0.3-0.3-0.3-1.1,0-1.4c5.7-2,5.6-8.9,5.6-15.1v-30L0.7,0h12.6c5.2,0,7.5,2.7,11.3,8.5l22.2,33.4V16.5c0-6.3,0.1-13.1-5.6-15.1
	C41,1.1,41,0.3,41.3,0h14.3c0.3,0.3,0.3,1.1,0,1.4C50,3.4,50,10.3,50,16.5v30L55.6,54.9z"/>
</svg>
