<?xml version="1.0" encoding="utf-8"?>
<!-- Generator: Adobe Illustrator 22.1.0, SVG Export Plug-In . SVG Version: 6.00 Build 0)  -->
<svg version="1.1" id="Livello_1" xmlns="http://www.w3.org/2000/svg" xmlns:xlink="http://www.w3.org/1999/xlink" x="0px" y="0px"
	 viewBox="0 0 241 50" style="enable-background:new 0 0 241 50;" xml:space="preserve">
<style type="text/css">
	.st0{fill:#FFFFFF;}
</style>
<g>
	<path class="st0" d="M157,44.1c-0.8,0-1.3-0.6-1.3-1.3v-2.5c0-0.5,0.2-0.8,1.1-2.1L177,12.4h-19.2c-0.7,0-1.2-0.6-1.2-1.2V8.8
		c0-0.7,0.6-1.3,1.2-1.3h25.5c0.8,0,1.3,0.6,1.3,1.3v2c0,0.5-0.2,0.8-1.1,2.1l-20.6,26.4h20.4c0.7,0,1.3,0.6,1.3,1.3v2.3
		c0,0.7-0.6,1.2-1.3,1.2H157L157,44.1z"/>
	<path class="st0" d="M192.1,44.1c-0.8,0-1.3-0.6-1.3-1.3v-2.5c0-0.5,0.2-0.8,1.1-2.1l20.2-25.8h-19.2c-0.7,0-1.2-0.6-1.2-1.2V8.8
		c0-0.7,0.6-1.3,1.2-1.3h25.5c0.8,0,1.3,0.6,1.3,1.3v2c0,0.5-0.2,0.8-1.1,2.1L198,39.3h20.4c0.7,0,1.3,0.6,1.3,1.3v2.3
		c0,0.7-0.6,1.2-1.3,1.2H192.1L192.1,44.1z"/>
	<path class="st0" d="M227.4,8.8c0-0.7,0.5-1.3,1.2-1.3h3.6c0.7,0,1.3,0.6,1.3,1.3v34c0,0.7-0.6,1.3-1.3,1.3h-3.6
		c-0.7,0-1.2-0.6-1.2-1.3V8.8L227.4,8.8z"/>
	<path class="st0" d="M119.3,8.8c0-0.6,0.5-1.2,1.2-1.2h3.7c0.7,0,1.2,0.6,1.2,1.2v23.1c0,4.5,3.7,8,8.5,8c4.8,0,8.5-3.5,8.5-8V8.8
		c0-0.7,0.6-1.2,1.2-1.2h3.7c0.7,0,1.2,0.6,1.2,1.2v23.1c0,7.6-6.7,13.5-14.7,13.5c-8,0-14.6-5.9-14.6-13.5V8.8L119.3,8.8z"/>
	<path class="st0" d="M62.6,6.2c8.2,0,14.8,6,14.8,13.5v23.1c0,0.7-0.6,1.2-1.2,1.2h-3.7c-0.7,0-1.2-0.6-1.2-1.2v-12h-17v12
		c0,0.7-0.6,1.2-1.3,1.2h-3.6c-0.7,0-1.2-0.6-1.2-1.2V19.8C48.1,12.2,54.7,6.2,62.6,6.2 M71.2,19.8c0-4.5-3.9-8-8.6-8
		c-4.5,0-8.4,3.5-8.4,8V26h17V19.8L71.2,19.8z"/>
	<path class="st0" d="M111,7.5c0.7,0,1.2,0.4,1.2,0.8v2.8c0,0.7-0.5,1.2-1.2,1.2h-10.7v30.5c0,0.7-0.6,1.2-1.2,1.2h-3.7
		c-0.7,0-1.2-0.6-1.2-1.2V12.4H83.6c-0.7,0-1.2-0.6-1.2-1.2V8.8c0-0.7,0.6-1.2,1.2-1.2H111L111,7.5z"/>
	<path class="st0" d="M8,7.5c-0.7,0-1.2,0.6-1.2,1.2v34.1c0,0.7,0.6,1.2,1.2,1.2h3.6c0.7,0,1.3-0.6,1.3-1.2V17l19.4,25.7
		c1.1,1.4,2,1.5,2.8,1.5h3.4c0.7,0,1.2-0.6,1.2-1.2V8.8c0-0.7-0.6-1.2-1.2-1.2h-3.7c-0.7,0-1.2,0.6-1.2,1.2V35L13.7,9
		c-1.1-1.4-2-1.4-2.8-1.4H8L8,7.5z"/>
</g>
</svg>
