<?xml version="1.0" encoding="utf-8"?>
<!-- Generator: Adobe Illustrator 22.1.0, SVG Export Plug-In . SVG Version: 6.00 Build 0)  -->
<svg version="1.1" id="Livello_1" xmlns="http://www.w3.org/2000/svg" xmlns:xlink="http://www.w3.org/1999/xlink" x="0px" y="0px"
	 viewBox="0 0 459 174" style="enable-background:new 0 0 459 174;" xml:space="preserve">
<style type="text/css">
	.st0{fill:#FFFFFF;}
</style>
<g>
	<path class="st0" d="M109.7,153.8H87.8V140h19.8c0.5,0,1-0.4,1-1v-3.5c0-0.5-0.4-0.9-1-0.9H87.8V122h20.9c0.5,0,1-0.4,1-1v-3.5
		c0-0.5-0.4-0.9-1-0.9H82.3c-0.5,0-0.9,0.4-0.9,1v40.7c0,0.5,0.4,0.9,0.9,0.9h27.4c0.5,0,1-0.4,1-0.9v-3.5
		C110.7,154.3,110.2,153.8,109.7,153.8"/>
	<path class="st0" d="M173.7,116.6h-4.5c-0.5,0-1,0.4-1,1v40.7c0,0.5,0.4,0.9,0.9,0.9h4.5c0.5,0,1-0.4,1-0.9v-40.7
		C174.6,117.1,174.1,116.6,173.7,116.6"/>
	<path class="st0" d="M236,116.6h-4.4c-0.5,0-1,0.4-1,1v40.7c0,0.5,0.4,0.9,0.9,0.9h4.4c0.5,0,1-0.4,1-0.9v-40.7
		C236.9,117.1,236.5,116.6,236,116.6"/>
	<path class="st0" d="M221.6,116.6h-38.2c-0.5,0-0.9,0.4-0.9,1v3.5c0,0.5,0.4,0.9,0.9,0.9h15.9v36.3c0,0.5,0.4,0.9,0.9,0.9h4.5
		c0.5,0,1-0.4,1-0.9V122h15.9c0.5,0,0.9-0.4,0.9-0.9v-3.5C222.6,117.1,222.1,116.6,221.6,116.6"/>
	<path class="st0" d="M247.3,138c0,13.2,9.9,22.4,23.1,22.4c13.2,0,23.1-9.2,23.1-22.4c0-13.2-10-22.4-23.1-22.4
		C257.2,115.6,247.3,124.8,247.3,138 M253.7,138c0-10,6.5-17.8,16.7-17.8c10.2,0,16.7,7.8,16.7,17.8c0,10-6.5,17.9-16.7,17.9
		C260.2,155.9,253.7,148,253.7,138"/>
	<path class="st0" d="M340.3,116.6h-4.5c-0.5,0-1,0.4-1,0.9v31.2l-23.4-30.9c-0.5-0.7-1.2-1.2-2.1-1.2h-4.5c-0.5,0-0.9,0.4-0.9,1
		v40.7c0,0.5,0.4,0.9,0.9,0.9h4.5c0.6,0,1-0.4,1-0.9v-31.2l23.4,30.9c0.5,0.7,1.2,1.2,2.1,1.2h4.5c0.5,0,0.9-0.4,0.9-0.9v-40.7
		C341.2,117.1,340.8,116.6,340.3,116.6"/>
	<path class="st0" d="M368,134.9c-5.1-1.6-8.7-2.8-8.7-7.2c0-4.6,4.5-6.7,8.3-6.7c2.7,0,5.5,1.2,7.6,2.8h0c0.1,0.1,0.3,0.1,0.5,0.1
		c0.2,0,0.5-0.1,0.6-0.2h0l2.5-2.8v0c0.2-0.2,0.3-0.4,0.3-0.6c0-0.3-0.1-0.5-0.3-0.7l0,0c-3.2-2.3-7.2-4-10.8-4
		c-7.4,0-15,4.3-15,12.5c0,7.5,5.4,9.9,10.3,11.5c5.6,1.7,10.4,3.1,10.4,8c0,5-4.6,7.3-8.5,7.3c-3.1,0-6.9-1.3-9.3-3.7
		c-0.3-0.3-0.8-0.3-1.1-0.1l-2.8,2.6c-0.4,0.4-0.3,0.9,0,1.2c3.3,3.2,8.3,5.4,13.2,5.4c8.1,0,14.9-4.9,14.9-13.6
		C380,138.9,373.3,136.5,368,134.9"/>
	<path class="st0" d="M127.3,121.1h6.5c10.8,0,16.9,7.1,16.9,16.8c0,9.6-6.1,16.8-16.9,16.8h-6.5V121.1z M120.9,158.3
		c0,0.5,0.5,0.9,0.9,0.9h13c12.3,0,22.1-8,22.1-21.3c0-13.2-9.9-21.3-22.1-21.3h-13c-0.7,0-1,0.5-1,1V158.3z"/>
	<path class="st0" d="M301.2,89.5c-1.5,0-2.5-1.2-2.5-2.5v-4.9c0-1,0.3-1.6,2.2-4l38.7-49.6h-36.8c-1.3,0-2.4-1.1-2.4-2.4v-4.5
		c0-1.4,1.1-2.5,2.4-2.5h49c1.5,0,2.5,1.2,2.5,2.5v3.9c0,1-0.3,1.6-2.2,4l-39.4,50.5h39.1c1.4,0,2.5,1.1,2.5,2.5v4.5
		c0,1.4-1.2,2.4-2.5,2.4H301.2z"/>
	<path class="st0" d="M368.5,89.5c-1.5,0-2.5-1.2-2.5-2.5v-4.9c0-1,0.3-1.6,2.2-4l38.7-49.6h-36.8c-1.3,0-2.4-1.1-2.4-2.4v-4.5
		c0-1.4,1.1-2.5,2.4-2.5h49c1.5,0,2.5,1.2,2.5,2.5v3.9c0,1-0.3,1.6-2.2,4l-39.5,50.5h39.2c1.4,0,2.5,1.1,2.5,2.5v4.5
		c0,1.4-1.2,2.4-2.5,2.4H368.5z"/>
	<path class="st0" d="M436.3,21.8c0-1.3,1-2.5,2.4-2.5h6.9c1.4,0,2.5,1.1,2.5,2.5V87c0,1.4-1.1,2.5-2.5,2.5h-6.9
		c-1.4,0-2.4-1.2-2.4-2.5V21.8z"/>
	<path class="st0" d="M229,21.7c0-1.2,1-2.4,2.4-2.4h7c1.3,0,2.4,1.1,2.4,2.4v44.2c0,8.6,7,15.4,16.3,15.4c9.2,0,16.3-6.8,16.3-15.4
		V21.7c0-1.3,1.1-2.4,2.4-2.4h7c1.3,0,2.4,1.1,2.4,2.4v44.2c0,14.6-12.8,26-28.1,26c-15.4,0-28.1-11.4-28.1-26V21.7z"/>
	<path class="st0" d="M120.2,16.9c15.7,0,28.3,11.5,28.3,26v44.3c0,1.3-1.1,2.4-2.4,2.4h-7c-1.3,0-2.4-1.1-2.4-2.4v-23h-32.6v23
		c0,1.3-1.1,2.4-2.5,2.4h-6.9c-1.3,0-2.4-1.1-2.4-2.4V42.8C92.4,28.4,105.2,16.9,120.2,16.9 M136.8,42.8c0-8.6-7.5-15.4-16.6-15.4
		c-8.6,0-16.1,6.7-16.1,15.4v12h32.6V42.8z"/>
	<path class="st0" d="M213,19.4c1.4,0,2.3,0.8,2.3,1.6v5.3c0,1.4-0.9,2.4-2.3,2.4h-20.4v58.5c0,1.3-1.1,2.4-2.4,2.4h-7
		c-1.3,0-2.4-1.1-2.4-2.4V28.7h-20.2c-1.3,0-2.4-1.1-2.4-2.4v-4.6c0-1.3,1.1-2.4,2.4-2.4H213z"/>
	<path class="st0" d="M15.7,19.4c-1.3,0-2.4,1.1-2.4,2.4v65.4c0,1.3,1.1,2.4,2.4,2.4h6.9c1.4,0,2.5-1.1,2.5-2.4V37.5l37.3,49.3
		c2.1,2.7,3.8,2.8,5.3,2.8h6.5c1.3,0,2.4-1.1,2.4-2.4V21.7c0-1.3-1.1-2.4-2.4-2.4h-7c-1.3,0-2.4,1.1-2.4,2.4V72L26.5,22.1
		c-2.1-2.8-3.8-2.8-5.4-2.8H15.7z"/>
</g>
</svg>
